<svg width="276" height="277" viewBox="0 0 276 277" fill="none" xmlns="http://www.w3.org/2000/svg">
  <path d="M162.646 251.588C225.215 238.088 264.995 176.422 251.495 113.852C237.995 51.2828 176.329 11.5038 113.759 25.0034C51.1897 38.5031 11.4107 100.169 24.9104 162.739C38.41 225.309 100.076 265.088 162.646 251.588Z" fill="#2CC0CD"/>
  <path d="M138.2 22.3C202.2 22.3 254.1 74.2 254.1 138.2C254.1 202.2 202.2 254.1 138.2 254.1C74.2 254.1 22.3 202.2 22.3 138.2C22.2 74.2 74.1 22.3 138.2 22.3ZM138.2 15.1C70.3 15.1 15 70.4 15 138.3C15 206.2 70.2 261.4 138.1 261.4C206 261.4 261.2 206.2 261.2 138.3C261.3 70.4 206.1 15.1 138.2 15.1Z" fill="white"/>
  <path d="M218.2 106.6C218.4 104.6 219.1 103.9 219.7 103.3C219.9 103.1 220.1 102.9 220.2 102.7C220.4 102.4 220.6 102 220.5 101.8C220.5 101.8 220.4 101.7 220.3 101.7C220.1 101.7 219.7 101.8 218.9 102.1C217.9 102.5 215.6 103.7 214.1 106" fill="white"/>
  <path d="M214 111.1C214.5 111.4 214.9 111.9 215.2 112.4C215.7 112.2 216.7 111.8 217.5 110.8C216.4 110.9 215.2 111 214 111.1Z" fill="white"/>
  <path d="M206.5 111.4C206.6 111.5 206.7 111.5 206.8 111.6C206.7 111.5 206.6 111.4 206.5 111.4Z" fill="white"/>
  <path d="M209.3 105.8C209.4 105.9 209.5 106 209.6 106.1C207.4 105.8 205.3 105.6 203.3 105.4C203.8 107.5 204.7 109.6 206.4 111.3C208 111.1 209.7 110.9 211.4 110.7C211.4 110.8 211.4 110.9 211.4 111C211.4 109.9 211 108 209.3 105.8Z" fill="white"/>
  <path d="M211.9 109.6C212 110 212.1 110.4 212.1 110.7C216.5 110.3 220.9 110 224.8 109.8C220.5 109.6 216.2 109.6 211.9 109.6Z" fill="white"/>
  <path d="M225.4 109.7C229.5 109.5 232.9 109.4 235.2 109.4C229.6 108.6 219.4 107.4 210.4 106.3C211.1 107.4 211.5 108.3 211.8 109.2C216.3 109.3 220.9 109.5 225.4 109.7Z" fill="white"/>
  <path d="M204.3 109.6C203.3 109.6 202.2 109.6 201.2 109.7C198.2 109.8 195.2 109.9 192.3 110.1V109.3C195.3 109.2 198.3 109.1 201.3 109.1C202.2 109.1 203.2 109.1 204.1 109.1C203.4 107.9 203 106.6 202.8 105.4C198.1 104.8 194.4 104.4 193.1 104.3C193.1 104.2 193.1 104.1 193 104C192.5 101.4 191 98.6 188.4 95.5C186.7 93.5 184.8 92 182.6 90.8C178.9 91.2 175.2 92 171.7 93.1C169.5 93.8 167.3 94.7 165.2 95.7C163.1 96.7 161.1 98 159.3 99.4C158.4 100.1 157.5 100.9 156.7 101.8C156.6 101.9 156.4 102 156.3 102.1C156 103.9 156 106.1 156.7 108.4C157.9 113 159.9 115.6 161.8 117.9C164.6 121.4 167 124.5 165.6 132.7C165.6 132.7 165.6 132.7 165.6 132.8C163 141.4 153.9 149 146.7 153.9C146.6 154 146.5 154 146.4 154C146.3 154 146.2 153.9 146.1 153.8C144.6 150.7 143.7 146 143.4 139.7C142.6 123.4 132.9 116.9 117.4 111.6C102.1 106.3 96.8001 103.8 80.3001 93.2C79.9001 92.9 79.2 92.7 78.6 92.7C78.2 92.7 77.9 92.8 77.7 93C77.5 93.2 77.4 93.8 78 95.3C78.1 95.4 85.6001 109.8 102.4 113.4C102.6 113.4 102.8 113.7 102.7 113.9C102.7 114.1 102.4 114.3 102.2 114.2L100.7 113.9C93.3 112.5 90.6001 112 78.8001 104.8C78.1001 104.3 75.7 103.2 73.7 103.2C72.3 103.2 71.5001 103.7 71.3001 104.7C71.3001 104.8 70.5 107.6 74.6 111.8C78.2 115.5 86.4 120.9 105.2 126.1C105.4 126.2 105.5 126.4 105.5 126.6C105.5 126.8 105.3 126.9 105.1 126.9C104.1 126.8 103.4 126.8 102.8 126.7C100.5 126.6 98.8001 126.5 89.8001 124.5C89.6001 124.5 89.4 124.4 89.1 124.3C87.7 124 85.1 123.3 82.7 123.3C81 123.3 79.7001 123.6 78.8001 124.2C78.7001 124.3 78.6001 124.8 78.9001 125.6C79.8001 128 84.5 133 106 138.6C106.2 138.7 106.3 138.9 106.3 139.1C106.3 139.3 106 139.4 105.8 139.4C102.7 138.7 100.6 138.3 99 138.3C98.1 138.3 97.4 138.4 96.6 138.8C96.2 139 96 139.4 96.1 140C96.2 141.8 98.5 145.2 104.1 146.9C108.6 148.2 111.8 149 113.9 149.3H114.1H114.2H114.3C114.4 149.3 114.6 149.3 114.7 149.3H114.9C115.1 149.3 115.3 149.5 115.3 149.7C115.3 149.9 115.1 150.1 114.9 150.1C114.7 150.1 114.5 150.1 114.2 150H114.1H114H113.8C112.4 149.8 111 149.6 109.6 149.3C108 149 106.5 148.7 105.4 148.7C104.5 148.7 103.9 148.9 103.7 149.3C103.6 149.4 103.6 149.5 103.7 149.8C104.4 151.3 109.1 153.6 115.4 154.5C115.6 154.5 115.8 154.7 115.7 155C115.7 155.2 115.5 155.4 115.3 155.4C114.2 155.3 113.3 155.2 112.5 155.1C110 154.8 109.2 154.7 108.7 155C108.4 155.1 108.4 155.4 108.4 155.6C108.4 156.3 109.3 157.4 111.1 158C113.9 159 117.7 160.2 123.3 160.2C123.5 160.2 123.7 160.4 123.7 160.6C123.7 160.8 123.5 161 123.3 161C122.5 161.1 121.5 161 120.6 161C120 161 119.4 160.9 118.9 160.9C117.5 160.9 116.5 161.1 115.7 161.6C115.5 161.7 115.6 161.8 115.6 161.8C115.7 162.6 118.3 164.4 122.4 165.5C122.6 165.5 122.7 165.7 122.7 165.9C122.7 166.1 122.6 166.2 122.4 166.3C121.6 166.6 120.8 166.8 120.1 167C112.9 169 108.9 169.9 104 169.9C100.6 169.9 96.9 169.5 92 168.8C91.8 168.8 91.7 168.8 91.5 168.8C90.3 168.8 88.9001 169.1 88.4001 169.8C88.3001 170 88.2001 170.2 88.3001 170.4C88.4001 170.6 89.0001 171.1 91.3001 171.1H91.5C91.7 171.1 91.9001 171.3 91.9001 171.5C91.9001 171.7 91.7 171.9 91.5 171.9H91.2C90.8 171.9 90.3001 171.9 89.8001 171.9C89.3001 171.9 88.8001 171.9 88.3001 171.9C86.9001 171.9 85.3 172 84.7 172.7C84.5 172.9 84.4001 173.2 84.4001 173.5C85.8001 173.6 87.3001 173.8 88.4001 174C88.6001 174 88.8 174.2 88.7 174.5C88.7 174.7 88.5 174.9 88.2 174.9C87.1 174.8 85.5 174.6 84 174.6C82 174.6 80.8 174.9 80.7 175.5V175.6C80.7 175.8 80.7 176.2 81 176.6C81.5 177.1 82.8 177.7 86.1 177.7H86.4001C86.6001 177.7 86.8001 177.9 86.8001 178.1C86.8001 178.3 86.6001 178.5 86.4001 178.5C85.7001 178.5 84.9 178.5 84 178.5C83.3 178.5 82.6001 178.5 81.9001 178.5C81.1001 178.5 78.7001 178.5 78.3001 179.2C78.2001 179.3 78.2001 179.4 78.3001 179.7C78.5001 180.1 80.2001 181.1 92.8001 181.2C93.4001 181.2 100.7 181.9 103.7 183C103.9 183.1 104 183.3 104 183.4C104 183.6 103.8 183.7 103.6 183.7C98.4 183.8 74.6 186.5 66.2 190.5C66.1 190.5 66.1 190.5 66 190.5C65.8 190.5 65.5 190.5 65 190.5C64.2 190.5 63.0001 190.4 61.7001 190.4C57.6001 190.4 57 191.2 57 191.5V191.6C57.1 192 57.1 192.4 58.5 192.4C59 192.4 59.7 192.3 60.6 192.2C60.8 192.2 61 192.3 61.1 192.5C61.2 192.7 61.1001 192.9 60.9001 193C60.6001 193.1 60.3001 193.3 59.9001 193.5C58.1001 194.5 55.4 196 49.8 196.3C46.6 196.5 44.6 197.2 43.3 197.9C44.6 198.1 46.3001 198.4 48.4001 198.4C52.5001 198.4 56.7001 197.5 60.9001 195.6C70.1001 191.6 76.2 188.9 89 187.9C93.2 187.6 96.5001 187.4 99.4001 187.4C105.9 187.4 110.8 188.1 118.1 189.6C121.4 190.2 124.7 190.6 128 190.6C136.4 190.6 144.3 188.6 150.9 184.8L151.5 184.4C159 179 166.8 173.5 173.1 154.5C173.1 154.3 177.9 137.5 180.5 131.8C182 127.6 184.6 124.1 187.1 120.6C188.1 119.2 189.1 117.9 190 116.5C190.2 116.2 190.4 115.8 190.6 115.5C193.7 113.8 199.7 112.5 206.1 111.7C205.1 110.9 204.7 110.3 204.3 109.6Z" fill="white"/>
  <path d="M154 100.2C154.2 100.7 154.6 101.2 154.9 101.4C155.1 101.5 155.2 101.5 155.4 101.5C155.6 101.4 155.8 101.3 156 101.1C156.8 100.3 157.7 99.5 158.7 98.7C162.5 95.7 166.9 93.8 171.5 92.4C176.1 91.1 180.8 90.5 185.6 90.2C188 90 190.3 90.1 192.7 90C193.9 90 195.1 89.9 196.2 89.8C196.8 89.7 197.4 89.7 197.9 89.6C198.2 89.5 198.5 89.5 198.7 89.4C198.8 89.3 198.9 89.3 199 89.2C199.1 89.1 199.1 89.1 199.1 89C199.1 88.7 198.7 88.4 198.3 88.3C197.9 88.1 197.5 88 197 87.8C196.1 87.6 195.2 87.4 194.3 87.2C192.5 86.9 190.6 86.7 188.8 86.5C187 86.3 185.1 86.2 183.2 86C181.3 85.9 179.5 85.7 177.6 85.6H177.5L177.4 85.5C176.8 84.6 176.1 83.7 175.4 82.9C174.7 82.1 173.9 81.2 173.2 80.4C172.8 80 172.5 79.6 172.1 79.2C171.7 78.9 171.2 78.6 170.7 78.5C169.6 78.2 168.5 78.3 167.5 78.6C165.7 79.3 163.8 80.1 162 81C160.2 81.9 158.5 82.9 156.9 84C155.3 85.1 153.8 86.5 152.8 88.1C152.3 88.9 151.9 89.8 151.8 90.7C151.7 91.2 151.7 91.6 151.8 92.1C151.8 92.6 151.9 93 152 93.5C152.2 94.6 152.5 95.8 152.8 96.9C153.1 98.1 153.5 99.2 154 100.2Z" fill="white"/>
  <path d="M208.4 112.7C209 113 209.5 113.1 209.9 113.1C210.9 113.1 211.2 112.5 211.4 112.1C211.4 112.1 211.5 111.6 211.5 110.9C210.2 111 209.1 111.7 208.4 112.7Z" fill="white"/>
  <path d="M212.1 111C212.1 111.8 212 112.3 212 112.3C211.7 113.2 210.9 113.7 209.9 113.7C209.3 113.7 208.7 113.5 208 113.2C207.6 113.9 207.4 114.8 207.4 115.8C207.4 118.5 209.3 120.7 211.6 120.7C213.9 120.7 215.8 118.5 215.8 115.8C215.7 113.3 214.1 111.3 212.1 111Z" fill="white"/>
  <path d="M202.8 99.6C202.8 99.8 202.8 100 202.8 100.2C202.9 103.2 203 109.5 208.1 112.6C208.8 113 209.4 113.2 209.9 113.2C210.9 113.2 211.2 112.6 211.4 112.2C211.4 112.2 212.2 108.9 208.8 105.2C206.2 102.5 205 100.7 204.1 99.4C203.7 98.9 203.5 98.4 203.1 98C203 97.9 202.9 97.8 202.9 97.8C202.8 97.9 202.7 98.3 202.8 99.6Z" fill="white"/>
  <path d="M212.1 121.3C212.6 121.3 213 121 213.4 121C213.8 122.2 214.1 123.3 214.5 124.5C215.2 126.7 215.8 128.9 216.5 131C217.9 135.5 218.9 140.1 220.1 144.8C220.4 146.3 220.7 147.7 221 149.2C221.4 151.1 221.5 153 221.9 155C222.1 155.9 221.9 156.9 222.1 157.9C222.1 158.2 222.1 158.5 222.1 158.8C222.1 159.7 222.1 160.6 222.1 161.6C222.1 162.6 222.1 163.5 222 164.5C222 165.2 221.9 165.9 221.9 166.6C221.9 167 221.8 167.5 221.8 167.9C221.6 169.1 221.6 170.3 221.4 171.4C221.2 172.5 221.2 173.5 221 174.5C220.5 176.8 220.1 179.1 219.3 181.2C219.1 181.8 218.6 183 218.4 183.6C218.2 184 217.9 184.3 217.4 184.4C217 184.5 216.5 184.7 216.3 184.7C214.7 185.2 213 185.5 211.3 186C207.3 187.1 203.1 187.9 199 189C196.6 189.6 194.1 190.1 191.7 190.7H191.6C191.1 190.8 190.6 190.7 190.3 190.4C186.3 187.1 182.3 183.7 178.4 180.4C178 180 177.7 179.5 177.7 178.9C177.7 178.1 177.8 177.2 178 176.5C178.2 175 178.3 173.6 178.6 172.2C178.8 171.2 178.9 170.2 179.1 169.1C179.9 165.5 180.7 161.9 182.3 159.1C183.2 157.6 184.3 156.2 185.4 154.8C187.3 152.4 189.2 150 191 147.6C193.7 144 196.5 140.4 199.2 136.6C200.4 135 201.6 133.3 202.6 131.6C204.9 128 207.2 124.5 208.9 120.3C208.9 120.3 208.9 120.3 209 120.4C209.4 120.6 209.7 121 210.2 121.1C210 122.2 209.7 123.3 209.5 124.4C209 126.3 208.7 128.2 208.1 130C207.9 130.8 207.7 131.6 207.5 132.4C206.9 134.4 206.4 136.4 205.8 138.4C205.1 140.8 204.3 143.1 203.4 145.4C202.9 146.6 202.4 147.7 201.9 148.9C200.9 151 199.9 153.1 198.9 155.2C198.1 156.9 197.4 158.7 196.7 160.5C196.3 161.5 196 162.6 195.6 163.8C195.4 164.4 195.3 165 195.1 165.5C195.3 165 195.4 164.5 195.6 163.9C196 162.7 196.3 161.6 196.8 160.5C197.4 158.9 198.1 157.5 198.7 156C199.3 154.7 199.9 153.4 200.6 152.2C201.1 151.1 201.7 150.1 202.2 149C202.7 147.8 203.3 146.6 203.8 145.4C204.4 143.9 204.9 142.3 205.5 140.8C205.8 140 206 139.2 206.3 138.4C206.9 136.5 207.4 134.6 208 132.7C208.2 131.8 208.5 130.9 208.7 130C209.2 128.3 209.6 126.5 210.1 124.7C210.4 123.6 210.6 122.5 210.9 121.4C211.2 121.4 211.4 121.5 211.7 121.5C211.9 122.4 212 123.3 212.2 124.3C212.7 126.6 212.8 129 213.2 131.4C213.3 132.3 213.4 133.1 213.5 134C213.6 135.4 213.7 136.7 213.8 138.1C213.8 138.7 213.8 139.2 213.9 139.8C213.9 140.1 213.9 140.4 213.9 140.8C213.9 141.7 213.9 142.7 213.9 143.6C213.9 144.4 213.9 145.1 213.9 145.9C213.9 145 214 144.1 214 143.2C214 142.8 214 142.5 214 142.1C214 141.6 214 141 214 140.5C214 140.1 214 139.7 214 139.4C214 138.6 213.9 137.7 213.9 136.9C213.8 136 213.8 135 213.7 134.1C213.6 132.9 213.5 131.8 213.4 130.6C213.1 128.9 213.1 127.1 212.8 125.4C212.5 123.9 212.3 122.6 212.1 121.3Z" fill="white"/>
</svg>
