<?xml version="1.0" encoding="UTF-8" standalone="no"?>
<!-- Created with Inkscape (http://www.inkscape.org/) -->

<svg
   xmlns:dc="http://purl.org/dc/elements/1.1/"
   xmlns:cc="http://creativecommons.org/ns#"
   xmlns:rdf="http://www.w3.org/1999/02/22-rdf-syntax-ns#"
   xmlns:svg="http://www.w3.org/2000/svg"
   xmlns="http://www.w3.org/2000/svg"
   xmlns:sodipodi="http://sodipodi.sourceforge.net/DTD/sodipodi-0.dtd"
   xmlns:inkscape="http://www.inkscape.org/namespaces/inkscape"
   width="569.34045mm"
   height="128.44951mm"
   viewBox="0 0 569.34045 128.44951"
   version="1.1"
   id="svg8"
   inkscape:version="0.92.4 (5da689c313, 2019-01-14)"
   sodipodi:docname="PS5LOGO.svg">
  <defs
     id="defs2" />
  <sodipodi:namedview
     id="base"
     pagecolor="#ffffff"
     bordercolor="#666666"
     borderopacity="1.0"
     inkscape:pageopacity="0.0"
     inkscape:pageshadow="2"
     inkscape:zoom="0.66919535"
     inkscape:cx="1075.919"
     inkscape:cy="242.73923"
     inkscape:document-units="mm"
     inkscape:current-layer="layer1"
     showgrid="false"
     showguides="false"
     inkscape:guide-bbox="true"
     inkscape:snap-global="false"
     inkscape:snap-smooth-nodes="true"
     fit-margin-top="0"
     fit-margin-left="0"
     fit-margin-right="0"
     fit-margin-bottom="0"
     inkscape:window-width="1920"
     inkscape:window-height="1027"
     inkscape:window-x="-8"
     inkscape:window-y="-8"
     inkscape:window-maximized="1">
    <sodipodi:guide
       position="214.14172,103.16222"
       orientation="0,1"
       id="guide826"
       inkscape:locked="false" />
    <sodipodi:guide
       position="229.77699,25.38679"
       orientation="0,1"
       id="guide828"
       inkscape:locked="false" />
    <sodipodi:guide
       position="208.85641,122.97211"
       orientation="1,0"
       id="guide830"
       inkscape:locked="false" />
    <sodipodi:guide
       position="225.67635,75.063621"
       orientation="1,0"
       id="guide832"
       inkscape:locked="false" />
    <sodipodi:guide
       position="254.21355,94.245911"
       orientation="0,1"
       id="guide834"
       inkscape:locked="false" />
    <sodipodi:guide
       position="296.05983,69.820341"
       orientation="0,1"
       id="guide836"
       inkscape:locked="false" />
    <sodipodi:guide
       position="334.88073,60.904031"
       orientation="0,1"
       id="guide838"
       inkscape:locked="false" />
    <sodipodi:guide
       position="340.82748,34.30311"
       orientation="0,1"
       id="guide842"
       inkscape:locked="false" />
    <sodipodi:guide
       position="305.6966,90.386181"
       orientation="1,0"
       id="guide850"
       inkscape:locked="false" />
    <sodipodi:guide
       position="322.51654,90.386181"
       orientation="1,0"
       id="guide852"
       inkscape:locked="false" />
    <sodipodi:guide
       position="369.38558,90.386181"
       orientation="1,0"
       id="guide854"
       inkscape:locked="false" />
    <sodipodi:guide
       position="386.20552,60.904031"
       orientation="1,0"
       id="guide856"
       inkscape:locked="false" />
    <sodipodi:guide
       position="455.58001,90.386181"
       orientation="1,0"
       id="guide858"
       inkscape:locked="false" />
    <sodipodi:guide
       position="472.39996,90.386181"
       orientation="1,0"
       id="guide860"
       inkscape:locked="false" />
    <sodipodi:guide
       position="552.52058,54.86894"
       orientation="1,0"
       id="guide862"
       inkscape:locked="false" />
    <sodipodi:guide
       position="569.34052,54.86894"
       orientation="1,0"
       id="guide864"
       inkscape:locked="false" />
  </sodipodi:namedview>
  <metadata
     id="metadata5">
    <rdf:RDF>
      <cc:Work
         rdf:about="">
        <dc:format>image/svg+xml</dc:format>
        <dc:type
           rdf:resource="http://purl.org/dc/dcmitype/StillImage" />
        <dc:title></dc:title>
      </cc:Work>
    </rdf:RDF>
  </metadata>
  <g
     inkscape:label="Layer 1"
     inkscape:groupmode="layer"
     id="layer1"
     transform="translate(301.27158,-75.603694)">
    <path
       style="opacity:1;vector-effect:none;fill:#000000;fill-opacity:1;fill-rule:evenodd;stroke:none;stroke-width:19.52323532;stroke-linecap:butt;stroke-linejoin:miter;stroke-miterlimit:4;stroke-dasharray:none;stroke-dashoffset:0;stroke-opacity:1"
       d="m 336.98828,381.32031 c -43.93345,3.7e-4 -79.54846,35.61538 -79.54883,79.54883 v 135.73633 c -3.4e-4,24.83618 -20.13452,44.96949 -44.9707,44.96875 H 59.345703 v 33.70117 H 241.46094 c 43.93422,-3.7e-4 79.54954,-35.61656 79.54883,-79.55078 V 459.98844 c 3.4e-4,-24.83618 20.13452,-44.96949 44.9707,-44.96875 l 155.97265,-1.6e-4 v -33.69922 z"
       transform="scale(0.26458333)"
       id="rect840"
       inkscape:connector-curvature="0"
       sodipodi:nodetypes="ccccccccccccc" />
    <path
       style="opacity:1;vector-effect:none;fill:#000000;fill-opacity:1;fill-rule:evenodd;stroke:none;stroke-width:19.52323532;stroke-linecap:butt;stroke-linejoin:miter;stroke-miterlimit:4;stroke-dasharray:none;stroke-dashoffset:0;stroke-opacity:1"
       d="m -349.28516,381.32031 v 33.69922 h 319.851566 c 25.4923896,1.9e-4 46.158006,20.66581 46.158203,46.1582 -1.91e-4,25.49239 -20.6658095,46.15802 -46.158203,46.15821 H -269.73633 c -43.93345,3.8e-4 -79.54846,35.61537 -79.54883,79.54883 v 88.39062 h 63.57032 v -89.26953 c 3.4e-4,-24.83618 20.13452,-44.96947 44.9707,-44.96875 H 0.4375 C 44.54217,541.0368 80.29569,505.2824 80.294922,461.17773 80.294608,417.07382 44.541405,381.32062 0.4375,381.32031 Z"
       transform="scale(0.26458333)"
       id="path916"
       inkscape:connector-curvature="0"
       sodipodi:nodetypes="ccccccccccccccc" />
    <path
       style="opacity:1;vector-effect:none;fill:#000000;fill-opacity:1;fill-rule:evenodd;stroke:none;stroke-width:15;stroke-linecap:butt;stroke-linejoin:miter;stroke-miterlimit:4;stroke-dasharray:none;stroke-dashoffset:0;stroke-opacity:1"
       d="m 583.21289,381.32031 v 109.76367 c -9.7e-4,27.58799 22.36318,49.95302 49.95117,49.95313 h 266.16797 c 27.76235,-4e-5 50.2685,22.50523 50.26953,50.26758 4e-5,27.76311 -22.50642,50.26957 -50.26953,50.26953 H 583.21289 v 33.70117 h 345.99219 c 46.37461,-10e-5 83.96862,-37.59414 83.96872,-83.96875 10e-4,-46.37537 -37.59335,-83.9706 -83.96872,-83.9707 H 666.86133 c -11.08762,-3.4e-4 -20.07583,-8.98855 -20.07617,-20.07617 v -72.24024 h 354.86744 v -33.69922 z"
       transform="scale(0.26458333)"
       id="path929"
       inkscape:connector-curvature="0"
       sodipodi:nodetypes="ccccccccccccccccc" />
    <path
       inkscape:connector-curvature="0"
       id="path72"
       style="fill:#000000;fill-opacity:1;fill-rule:nonzero;stroke:none;stroke-width:4.83765793"
       d="M -239.02362,75.603694 V 195.44218 l 27.1199,8.61102 V 103.53151 c 0,-4.697382 2.09956,-7.856373 5.48592,-6.753384 4.42645,1.223926 5.28756,5.558474 5.28756,10.265514 v 40.14289 c 16.91245,8.16113 30.21117,-0.005 30.21117,-21.54693 0,-22.10809 -7.78378,-31.914037 -30.74331,-39.813933 -9.03675,-3.028376 -25.82343,-8.093403 -37.36124,-10.221973" />
    <path
       inkscape:connector-curvature="0"
       id="path76"
       style="fill:#000000;fill-opacity:1;fill-rule:nonzero;stroke:none;stroke-width:4.83765793"
       d="m -206.7666,186.54426 43.62117,-15.55306 c 4.94409,-1.7706 5.70844,-4.28617 1.68833,-5.59717 -4.01524,-1.31101 -11.29109,-0.92884 -16.23517,0.8369 l -29.07433,10.24617 v -16.29323 l 1.67383,-0.56117 c 0,0 8.40301,-2.98 20.20206,-4.29101 11.81357,-1.28198 26.27816,0.16932 37.62247,4.48451 12.80044,4.04913 14.23723,9.99461 10.99116,14.0921 -3.26058,4.10717 -11.21852,7.0388 -11.21852,7.0388 l -59.271,21.28569 z" />
    <path
       inkscape:connector-curvature="0"
       id="path80"
       style="fill:#000000;fill-opacity:1;fill-rule:nonzero;stroke:none;stroke-width:4.83765793"
       d="m -288.77265,184.88591 c -13.1294,-3.7008 -15.32086,-11.38784 -9.34152,-15.82881 5.5488,-4.10717 14.95321,-7.18392 14.95321,-7.18392 l 38.87542,-13.81152 v 15.74175 l -27.97617,10.01878 c -4.94894,1.77059 -5.69394,4.28617 -1.69318,5.5875 4.02976,1.32551 11.29593,0.94818 16.24969,-0.83207 l 13.41966,-4.86185 v 14.09692 c -0.85627,0.14514 -1.7996,0.29511 -2.67039,0.4354 -13.42935,2.19146 -27.72946,1.28198 -41.81672,-3.36218" />
  </g>
</svg>
